{
    "asset" : {
        "generator" : "Khronos glTF Blender I/O v3.2.40",
        "version" : "2.0"
    },
    "scene" : 0,
    "scenes" : [
        {
            "name" : "Scene",
            "nodes" : [
                0
            ]
        }
    ],
    "nodes" : [
        {
            "mesh" : 0,
            "name" : "Cube"
        }
    ],
    "meshes" : [
        {
            "name" : "Cube.001",
            "primitives" : [
                {
                    "attributes" : {
                        "POSITION" : 0,
                        "NORMAL" : 1,
                        "TEXCOORD_0" : 2
                    },
                    "indices" : 3
                }
            ]
        }
    ],
    "accessors" : [
        {
            "bufferView" : 0,
            "componentType" : 5126,
            "count" : 3363,
            "max" : [
                50.23215103149414,
                5.327575206756592,
                52.13371276855469
            ],
            "min" : [
                -50.024845123291016,
                -4.810585021972656,
                -51.527381896972656
            ],
            "type" : "VEC3"
        },
        {
            "bufferView" : 1,
            "componentType" : 5126,
            "count" : 3363,
            "type" : "VEC3"
        },
        {
            "bufferView" : 2,
            "componentType" : 5126,
            "count" : 3363,
            "type" : "VEC2"
        },
        {
            "bufferView" : 3,
            "componentType" : 5123,
            "count" : 5280,
            "type" : "SCALAR"
        }
    ],
    "bufferViews" : [
        {
            "buffer" : 0,
            "byteLength" : 40356,
            "byteOffset" : 0
        },
        {
            "buffer" : 0,
            "byteLength" : 40356,
            "byteOffset" : 40356
        },
        {
            "buffer" : 0,
            "byteLength" : 26904,
            "byteOffset" : 80712
        },
        {
            "buffer" : 0,
            "byteLength" : 10560,
            "byteOffset" : 107616
        }
    ],
    "buffers" : [
        {
            "byteLength" : 118176,
            "uri" : "planeXZ.bin"
        }
    ]
}
