{
    "asset" : {
        "generator" : "Khronos glTF Blender I/O v3.2.40",
        "version" : "2.0"
    },
    "scene" : 0,
    "scenes" : [
        {
            "name" : "Scene",
            "nodes" : [
                0
            ]
        }
    ],
    "nodes" : [
        {
            "mesh" : 0,
            "name" : "plane low poky",
            "rotation" : [
                0.11466927826404572,
                0.7043939232826233,
                -0.6766767501831055,
                0.18107694387435913
            ],
            "scale" : [
                2.3693699836730957,
                2.369370222091675,
                2.369370222091675
            ]
        }
    ],
    "meshes" : [
        {
            "name" : "plane.001",
            "primitives" : [
                {
                    "attributes" : {
                        "POSITION" : 0,
                        "NORMAL" : 1,
                        "TEXCOORD_0" : 2
                    },
                    "indices" : 3
                }
            ]
        }
    ],
    "accessors" : [
        {
            "bufferView" : 0,
            "componentType" : 5126,
            "count" : 478,
            "max" : [
                0.5882236957550049,
                0.4908885061740875,
                0.09710729122161865
            ],
            "min" : [
                -0.5400902628898621,
                -0.7259435057640076,
                -0.1983027160167694
            ],
            "type" : "VEC3"
        },
        {
            "bufferView" : 1,
            "componentType" : 5126,
            "count" : 478,
            "type" : "VEC3"
        },
        {
            "bufferView" : 2,
            "componentType" : 5126,
            "count" : 478,
            "type" : "VEC2"
        },
        {
            "bufferView" : 3,
            "componentType" : 5123,
            "count" : 738,
            "type" : "SCALAR"
        }
    ],
    "bufferViews" : [
        {
            "buffer" : 0,
            "byteLength" : 5736,
            "byteOffset" : 0
        },
        {
            "buffer" : 0,
            "byteLength" : 5736,
            "byteOffset" : 5736
        },
        {
            "buffer" : 0,
            "byteLength" : 3824,
            "byteOffset" : 11472
        },
        {
            "buffer" : 0,
            "byteLength" : 1476,
            "byteOffset" : 15296
        }
    ],
    "buffers" : [
        {
            "byteLength" : 16772,
            "uri" : "planetest.bin"
        }
    ]
}
