{
    "asset" : {
        "generator" : "Khronos glTF Blender I/O v3.2.40",
        "version" : "2.0"
    },
    "scene" : 0,
    "scenes" : [
        {
            "name" : "Scene",
            "nodes" : [
                0
            ]
        }
    ],
    "nodes" : [
        {
            "mesh" : 0,
            "name" : "plane low poky"
        }
    ],
    "meshes" : [
        {
            "name" : "plane.001",
            "primitives" : [
                {
                    "attributes" : {
                        "POSITION" : 0,
                        "NORMAL" : 1,
                        "TEXCOORD_0" : 2
                    },
                    "indices" : 3
                }
            ]
        }
    ],
    "accessors" : [
        {
            "bufferView" : 0,
            "componentType" : 5126,
            "count" : 478,
            "max" : [
                0.6031346917152405,
                0.21103516221046448,
                0.41678163409233093
            ],
            "min" : [
                -0.5770257711410522,
                -0.07624241709709167,
                -0.8345000743865967
            ],
            "type" : "VEC3"
        },
        {
            "bufferView" : 1,
            "componentType" : 5126,
            "count" : 478,
            "type" : "VEC3"
        },
        {
            "bufferView" : 2,
            "componentType" : 5126,
            "count" : 478,
            "type" : "VEC2"
        },
        {
            "bufferView" : 3,
            "componentType" : 5123,
            "count" : 738,
            "type" : "SCALAR"
        }
    ],
    "bufferViews" : [
        {
            "buffer" : 0,
            "byteLength" : 5736,
            "byteOffset" : 0
        },
        {
            "buffer" : 0,
            "byteLength" : 5736,
            "byteOffset" : 5736
        },
        {
            "buffer" : 0,
            "byteLength" : 3824,
            "byteOffset" : 11472
        },
        {
            "buffer" : 0,
            "byteLength" : 1476,
            "byteOffset" : 15296
        }
    ],
    "buffers" : [
        {
            "byteLength" : 16772,
            "uri" : "planetest2.bin"
        }
    ]
}
